<svg xmlns="http://www.w3.org/2000/svg" viewBox="0 0 466 72">
    <path fill="#ccc" d="M74.146.532V71.77l14.772-.458V5.782s10.665-1.64 16.115 9.134c4.273 8.448 1.353 16.833.854 18.494-1.516 5.044-5.494 9.362-7.936 9.933-2.44.57-5.126.57-5.126.57L91.36 49.05s10.987 2.056 19.777-3.766c8.79-5.823 9.89-12.787 10.133-13.585.245-.8 2.184-7.22-1.1-16.098-1.653-4.472-5.445-9.813-12.817-13.47-1.258-.625-3.9-1.734-12.33-2.056C86.77-.24 74.145.532 74.145.532zM138.12 41.63h19.533v30.252h14.894V1.56h-15.14v30.937h-19.166V1.56h-14.527v70.094h14.406M179.628 1.56h14.528v70.208h-14.528zM240.792 64.234h-22.585V1.674H202.58V72.11h38.212" class="text" />
    <path fill="#a9cf3e" d="M19.952 23.37S11.202 9.694 8.737 6.797C6.272 3.9 3.314 4.017 1.465 5.29c-1.848 1.276-1.6 4.057-.37 6.027C2.33 13.287 19.953 23.37 19.953 23.37zM43.838 24.47S51.98 10.47 54.315 7.478c2.335-2.99 5.295-2.99 7.2-1.788 1.902 1.2 1.778 3.99.633 6.006S43.838 24.47 43.838 24.47zM42.66 45.732s14.63 8.09 17.735 10.38c3.105 2.288 3.013 5.07 1.675 6.822-1.338 1.75-4.297 1.548-6.404.408-2.108-1.14-13.007-17.61-13.007-17.61zM18.826 45.04S10.966 59.188 8.69 62.22c-2.274 3.03-5.235 3.083-7.162 1.915C-.4 62.965-.33 60.175.774 58.138 1.878 56.102 18.826 45.04 18.826 45.04z" class="stem" />
    <path fill="#ee4799" d="M15.022 41.68c-1.48 2.783-7.413 6.063-11.092 5.68-1.878-.195-2.342-.927-3.204-2.897-.433-.988-.37-19.818.123-20.86.492-1.044.246-1.507 3.203-1.855 2.958-.348 10.855 3.255 10.97 5.794.122 2.78 0 14.14 0 14.14zM39.16 50.75c2.957 1.39 6.444 6.97 6.04 10.43-.21 1.766-.987 2.202-3.083 3.013-1.05.407-21.074.348-22.184-.115-1.11-.464-1.602-.232-1.972-3.013-.37-2.782 3.463-10.21 6.163-10.315 2.958-.117 15.036 0 15.036 0zM24.53 18.59c-2.958-1.39-6.445-6.97-6.04-10.43.21-1.766.986-2.203 3.082-3.014 1.05-.407 21.075-.348 22.184.116 1.11.464 1.603.232 1.972 3.013.37 2.782-3.46 10.21-6.163 10.315-2.957.116-15.035 0-15.035 0zM47.712 42.59c1.48 2.783 7.412 6.063 11.09 5.68 1.88-.196 2.343-.927 3.206-2.897.433-.99.37-19.818-.124-20.86-.492-1.044-.246-1.508-3.204-1.855-2.958-.348-10.856 3.254-10.968 5.795-.123 2.78 0 14.138 0 14.138z" class="petal" />
    <path fill="#f7921e" d="M25.127 24.528c-3.45.812-4.067 1.392-4.56 4.288-1.072 6.306-1.72 7.448-.123 12.17.863 2.548 1.37 3.607 4.313 3.94 6.162.695 8.716.29 11.708.115 1.972-.115 4.96-2.212 5.177-3.94.792-6.31.31-8.35-.246-13.327-.148-1.313-2.342-3.13-3.944-3.36-3.083-.446-12.325.115-12.325.115z" class="bud" />
    <path fill="#ccc" d="M265.635 9.68h15.138V1.376h-44.927v7.935h15.26v63.24h14.53M299.82 1.743l24.294 70.81H309.95l-6.958-19.412h-20.02l-6.47 19.413h-9.158l21.365-70.81h11.11zm-8.303 19.046l-6.715 23.195h15.138l-8.423-23.196zM340.35 33.12l14.285-31.01h-9.157l-10.62 22.585L323.502 2.11h-15.87l17.58 33.94v36.503h15.138M355.245 72.553h33.818v-8.058h-19.168V2.11h-14.65" class="text" />
    <path fill="#ccc" d="M412.747 7.97c4.572 4.07 9.278 14.162 9.645 26.248.367 12.086-4.083 26.79-11.995 33.756-3.18 2.8-8.157 4.683-12.056 4.7-9.28.044-16.162-6.87-18.434-9.888-2.866-3.81-6.226-10.133-6.592-25.15-.27-11.115 5.036-23.31 6.592-25.88 2.81-4.64 10.506-10.3 17.703-10.012 6.23.248 9.45 1.162 15.137 6.226zm-15.26-1.588c-3.54 0-6.336 3.76-7.203 6.47-4.164 13.018-1.88 45.5.366 49.567 1.702 3.082 3.374 4.246 6.35 4.638 2.672.354 4.87-.52 6.714-2.93 5.982-7.813 3.865-44.816 1.342-51.276-3.052-7.813-7.57-6.47-7.57-6.47zM424.1 2.11v70.077h14.163V7.847s7.7-.983 11.11 2.564c3.052 3.175 5.15 10.043 1.83 20.145-.87 2.645-2.614 5.4-6.592 6.593-1.22.366-3.66.244-3.66.244l-1.833 4.273 14.895 30.4h12.208L451.325 42.03s7.922-3.82 11.11-10.376c2.206-4.54 4.577-15.445-.977-22.585-2.564-3.297-5.86-5.25-12.086-6.594-6.16-1.33-25.27-.366-25.27-.366z" class="text" />
</svg>